<svg width="616" height="138" viewBox="0 0 616 138" fill="none" xmlns="http://www.w3.org/2000/svg">
<path d="M95.975 3.72502V113H82.775C80.825 113 79.175 112.7 77.825 112.1C76.525 111.45 75.225 110.35 73.925 108.8L22.4 43.625C22.6 45.575 22.725 47.475 22.775 49.325C22.875 51.125 22.925 52.825 22.925 54.425V113H0.575012V3.72502H13.925C15.025 3.72502 15.95 3.77502 16.7 3.87502C17.45 3.97502 18.125 4.17502 18.725 4.47502C19.325 4.72502 19.9 5.10002 20.45 5.60002C21 6.10002 21.625 6.77502 22.325 7.62502L74.3 73.25C74.05 71.15 73.875 69.125 73.775 67.175C73.675 65.175 73.625 63.3 73.625 61.55V3.72502H95.975ZM160.508 64.775C160.508 62.925 160.258 61.125 159.758 59.375C159.308 57.625 158.533 56.075 157.433 54.725C156.383 53.325 154.983 52.2 153.233 51.35C151.483 50.5 149.358 50.075 146.858 50.075C142.458 50.075 139.008 51.35 136.508 53.9C134.008 56.4 132.358 60.025 131.558 64.775H160.508ZM131.258 78.275C132.008 84.775 133.983 89.5 137.183 92.45C140.383 95.35 144.508 96.8 149.558 96.8C152.258 96.8 154.583 96.475 156.533 95.825C158.483 95.175 160.208 94.45 161.708 93.65C163.258 92.85 164.658 92.125 165.908 91.475C167.208 90.825 168.558 90.5 169.958 90.5C171.808 90.5 173.208 91.175 174.158 92.525L180.908 100.85C178.508 103.6 175.908 105.85 173.108 107.6C170.358 109.3 167.508 110.65 164.558 111.65C161.658 112.6 158.733 113.25 155.783 113.6C152.883 114 150.108 114.2 147.458 114.2C142.008 114.2 136.883 113.325 132.083 111.575C127.333 109.775 123.158 107.125 119.558 103.625C116.008 100.125 113.183 95.775 111.083 90.575C109.033 85.375 108.008 79.325 108.008 72.425C108.008 67.225 108.883 62.3 110.633 57.65C112.433 53 114.983 48.925 118.283 45.425C121.633 41.925 125.658 39.15 130.358 37.1C135.108 35.05 140.458 34.025 146.408 34.025C151.558 34.025 156.258 34.825 160.508 36.425C164.808 38.025 168.483 40.35 171.533 43.4C174.633 46.45 177.033 50.2 178.733 54.65C180.483 59.05 181.358 64.05 181.358 69.65C181.358 71.4 181.283 72.825 181.133 73.925C180.983 75.025 180.708 75.9 180.308 76.55C179.908 77.2 179.358 77.65 178.658 77.9C178.008 78.15 177.158 78.275 176.108 78.275H131.258ZM219.792 114.2C216.092 114.2 212.817 113.675 209.967 112.625C207.167 111.525 204.792 110 202.842 108.05C200.942 106.05 199.492 103.65 198.492 100.85C197.492 98.05 196.992 94.925 196.992 91.475V51.275H190.392C189.192 51.275 188.167 50.9 187.317 50.15C186.467 49.35 186.042 48.2 186.042 46.7V37.625L198.417 35.225L202.992 16.25C203.592 13.85 205.292 12.65 208.092 12.65H220.242V35.375H239.517V51.275H220.242V89.9C220.242 91.7 220.667 93.2 221.517 94.4C222.417 95.55 223.692 96.125 225.342 96.125C226.192 96.125 226.892 96.05 227.442 95.9C228.042 95.7 228.542 95.5 228.942 95.3C229.392 95.05 229.792 94.85 230.142 94.7C230.542 94.5 230.992 94.4 231.492 94.4C232.192 94.4 232.742 94.575 233.142 94.925C233.592 95.225 234.042 95.725 234.492 96.425L241.542 107.45C238.542 109.7 235.167 111.4 231.417 112.55C227.667 113.65 223.792 114.2 219.792 114.2ZM312.61 25.925C311.86 27.125 311.06 28.025 310.21 28.625C309.41 29.225 308.36 29.525 307.06 29.525C305.91 29.525 304.66 29.175 303.31 28.475C302.01 27.725 300.51 26.9 298.81 26C297.16 25.1 295.26 24.3 293.11 23.6C290.96 22.85 288.51 22.475 285.76 22.475C281.01 22.475 277.46 23.5 275.11 25.55C272.81 27.55 271.66 30.275 271.66 33.725C271.66 35.925 272.36 37.75 273.76 39.2C275.16 40.65 276.985 41.9 279.235 42.95C281.535 44 284.135 44.975 287.035 45.875C289.985 46.725 292.985 47.7 296.035 48.8C299.085 49.85 302.06 51.1 304.96 52.55C307.91 54 310.51 55.85 312.76 58.1C315.06 60.35 316.91 63.1 318.31 66.35C319.71 69.55 320.41 73.425 320.41 77.975C320.41 83.025 319.535 87.75 317.785 92.15C316.035 96.55 313.485 100.4 310.135 103.7C306.835 106.95 302.735 109.525 297.835 111.425C292.985 113.275 287.46 114.2 281.26 114.2C277.86 114.2 274.385 113.85 270.835 113.15C267.335 112.45 263.935 111.475 260.635 110.225C257.335 108.925 254.235 107.4 251.335 105.65C248.435 103.9 245.91 101.95 243.76 99.8L251.26 87.95C251.86 87.1 252.635 86.4 253.585 85.85C254.585 85.25 255.66 84.95 256.81 84.95C258.31 84.95 259.81 85.425 261.31 86.375C262.86 87.325 264.585 88.375 266.485 89.525C268.435 90.675 270.66 91.725 273.16 92.675C275.66 93.625 278.61 94.1 282.01 94.1C286.61 94.1 290.185 93.1 292.735 91.1C295.285 89.05 296.56 85.825 296.56 81.425C296.56 78.875 295.86 76.8 294.46 75.2C293.06 73.6 291.21 72.275 288.91 71.225C286.66 70.175 284.085 69.25 281.185 68.45C278.285 67.65 275.31 66.775 272.26 65.825C269.21 64.825 266.235 63.625 263.335 62.225C260.435 60.775 257.835 58.9 255.535 56.6C253.285 54.25 251.46 51.35 250.06 47.9C248.66 44.4 247.96 40.1 247.96 35C247.96 30.9 248.785 26.9 250.435 23C252.085 19.1 254.51 15.625 257.71 12.575C260.91 9.52502 264.835 7.10003 269.485 5.30003C274.135 3.45003 279.46 2.52502 285.46 2.52502C288.81 2.52502 292.06 2.80002 295.21 3.35002C298.41 3.85002 301.435 4.62503 304.285 5.67503C307.135 6.67503 309.785 7.90002 312.235 9.35002C314.735 10.75 316.96 12.35 318.91 14.15L312.61 25.925ZM380.967 64.775C380.967 62.925 380.717 61.125 380.217 59.375C379.767 57.625 378.992 56.075 377.892 54.725C376.842 53.325 375.442 52.2 373.692 51.35C371.942 50.5 369.817 50.075 367.317 50.075C362.917 50.075 359.467 51.35 356.967 53.9C354.467 56.4 352.817 60.025 352.017 64.775H380.967ZM351.717 78.275C352.467 84.775 354.442 89.5 357.642 92.45C360.842 95.35 364.967 96.8 370.017 96.8C372.717 96.8 375.042 96.475 376.992 95.825C378.942 95.175 380.667 94.45 382.167 93.65C383.717 92.85 385.117 92.125 386.367 91.475C387.667 90.825 389.017 90.5 390.417 90.5C392.267 90.5 393.667 91.175 394.617 92.525L401.367 100.85C398.967 103.6 396.367 105.85 393.567 107.6C390.817 109.3 387.967 110.65 385.017 111.65C382.117 112.6 379.192 113.25 376.242 113.6C373.342 114 370.567 114.2 367.917 114.2C362.467 114.2 357.342 113.325 352.542 111.575C347.792 109.775 343.617 107.125 340.017 103.625C336.467 100.125 333.642 95.775 331.542 90.575C329.492 85.375 328.467 79.325 328.467 72.425C328.467 67.225 329.342 62.3 331.092 57.65C332.892 53 335.442 48.925 338.742 45.425C342.092 41.925 346.117 39.15 350.817 37.1C355.567 35.05 360.917 34.025 366.867 34.025C372.017 34.025 376.717 34.825 380.967 36.425C385.267 38.025 388.942 40.35 391.992 43.4C395.092 46.45 397.492 50.2 399.192 54.65C400.942 59.05 401.817 64.05 401.817 69.65C401.817 71.4 401.742 72.825 401.592 73.925C401.442 75.025 401.167 75.9 400.767 76.55C400.367 77.2 399.817 77.65 399.117 77.9C398.467 78.15 397.617 78.275 396.567 78.275H351.717ZM436.701 91.85C438.451 93.75 440.351 95.1 442.401 95.9C444.451 96.7 446.601 97.1 448.851 97.1C451.001 97.1 452.976 96.675 454.776 95.825C456.576 94.975 458.126 93.625 459.426 91.775C460.776 89.875 461.826 87.425 462.576 84.425C463.326 81.425 463.701 77.775 463.701 73.475C463.701 69.375 463.401 65.925 462.801 63.125C462.201 60.325 461.351 58.075 460.251 56.375C459.201 54.625 457.926 53.375 456.426 52.625C454.926 51.875 453.251 51.5 451.401 51.5C448.001 51.5 445.201 52.125 443.001 53.375C440.801 54.625 438.701 56.45 436.701 58.85V91.85ZM435.276 44.825C438.326 41.575 441.776 38.925 445.626 36.875C449.526 34.775 454.151 33.725 459.501 33.725C463.551 33.725 467.301 34.625 470.751 36.425C474.201 38.225 477.176 40.825 479.676 44.225C482.176 47.625 484.126 51.8 485.526 56.75C486.976 61.65 487.701 67.225 487.701 73.475C487.701 79.325 486.876 84.725 485.226 89.675C483.626 94.625 481.351 98.925 478.401 102.575C475.501 106.225 472.001 109.075 467.901 111.125C463.851 113.175 459.351 114.2 454.401 114.2C450.351 114.2 446.951 113.625 444.201 112.475C441.451 111.325 438.951 109.775 436.701 107.825V137.675H413.451V35.225H427.851C430.751 35.225 432.651 36.525 433.551 39.125L435.276 44.825ZM523.505 35.225V113H500.255V35.225H523.505ZM525.905 13.925C525.905 15.775 525.53 17.525 524.78 19.175C524.03 20.775 523.005 22.2 521.705 23.45C520.405 24.65 518.88 25.625 517.13 26.375C515.43 27.075 513.605 27.425 511.655 27.425C509.755 27.425 507.98 27.075 506.33 26.375C504.68 25.625 503.205 24.65 501.905 23.45C500.655 22.2 499.655 20.775 498.905 19.175C498.205 17.525 497.855 15.775 497.855 13.925C497.855 12.025 498.205 10.25 498.905 8.60002C499.655 6.95002 500.655 5.50002 501.905 4.25002C503.205 3.00002 504.68 2.02502 506.33 1.32502C507.98 0.62502 509.755 0.275024 511.655 0.275024C513.605 0.275024 515.43 0.62502 517.13 1.32502C518.88 2.02502 520.405 3.00002 521.705 4.25002C523.005 5.50002 524.03 6.95002 524.78 8.60002C525.53 10.25 525.905 12.025 525.905 13.925ZM575.571 34.025C581.471 34.025 586.846 34.95 591.696 36.8C596.546 38.65 600.696 41.3 604.146 44.75C607.646 48.2 610.346 52.4 612.246 57.35C614.196 62.25 615.171 67.775 615.171 73.925C615.171 80.125 614.196 85.725 612.246 90.725C610.346 95.675 607.646 99.9 604.146 103.4C600.696 106.85 596.546 109.525 591.696 111.425C586.846 113.275 581.471 114.2 575.571 114.2C569.621 114.2 564.196 113.275 559.296 111.425C554.446 109.525 550.246 106.85 546.696 103.4C543.196 99.9 540.471 95.675 538.521 90.725C536.621 85.725 535.671 80.125 535.671 73.925C535.671 67.775 536.621 62.25 538.521 57.35C540.471 52.4 543.196 48.2 546.696 44.75C550.246 41.3 554.446 38.65 559.296 36.8C564.196 34.95 569.621 34.025 575.571 34.025ZM575.571 96.95C580.921 96.95 584.846 95.075 587.346 91.325C589.896 87.525 591.171 81.775 591.171 74.075C591.171 66.375 589.896 60.65 587.346 56.9C584.846 53.15 580.921 51.275 575.571 51.275C570.071 51.275 566.046 53.15 563.496 56.9C560.946 60.65 559.671 66.375 559.671 74.075C559.671 81.775 560.946 87.525 563.496 91.325C566.046 95.075 570.071 96.95 575.571 96.95Z" fill="white"/>
</svg>
