<svg width="12" height="12" viewBox="0 0 12 12" fill="none" xmlns="http://www.w3.org/2000/svg">
<circle cx="6" cy="6" r="6" fill="#424F7F"/>
<path d="M7.18231 3H8.79803C8.8516 3 8.90297 3.02128 8.94085 3.05915C8.97872 3.09703 9 3.1484 9 3.20197V4.81769C9.00007 4.85769 8.98826 4.89681 8.96608 4.93009C8.94389 4.96337 8.91232 4.98931 8.87537 5.00463C8.83842 5.01994 8.79776 5.02394 8.75853 5.01612C8.71931 5.0083 8.68329 4.989 8.65504 4.96068L7.99017 4.29541L3.28598 9L3 8.71402L7.70459 4.00983L7.03932 3.34496C7.011 3.31671 6.9917 3.28069 6.98388 3.24147C6.97606 3.20224 6.98006 3.16158 6.99537 3.12463C7.01069 3.08768 7.03663 3.05611 7.06991 3.03392C7.10319 3.01174 7.14231 2.99993 7.18231 3Z" fill="white"/>
</svg>
