<svg width="12" height="12" viewBox="0 0 12 12" fill="none" xmlns="http://www.w3.org/2000/svg">
<circle cx="6" cy="6" r="6" fill="#424F7F"/>
<path d="M6.78821 4H7.86536C7.90107 4 7.93531 4.01419 7.96056 4.03944C7.98581 4.06469 8 4.09893 8 4.13464V5.21179C8.00005 5.23846 7.99218 5.26454 7.97739 5.28673C7.96259 5.30891 7.94155 5.32621 7.91691 5.33642C7.89228 5.34663 7.86517 5.34929 7.83902 5.34408C7.81287 5.33886 7.78886 5.326 7.77003 5.30712L7.32678 4.86361L4.19066 8L4 7.80934L7.13639 4.67322L6.69288 4.22997C6.674 4.21114 6.66114 4.18713 6.65592 4.16098C6.65071 4.13483 6.65337 4.10772 6.66358 4.08309C6.67379 4.05845 6.69109 4.03741 6.71327 4.02261C6.73546 4.00782 6.76154 3.99995 6.78821 4Z" fill="white"/>
</svg>
