<svg width="70" height="63" viewBox="0 0 70 63" fill="none" xmlns="http://www.w3.org/2000/svg">
<g filter="url(#filter0_d_134_273)">
<path d="M45.3838 17.9001C43.4837 17.0144 41.4265 16.3715 39.2836 16.0001C39.2648 15.9995 39.2461 16.003 39.2289 16.0104C39.2116 16.0178 39.1961 16.0289 39.1836 16.0429C38.9265 16.5144 38.6265 17.1287 38.4265 17.6001C36.1535 17.2572 33.842 17.2572 31.5691 17.6001C31.3691 17.1144 31.0691 16.5144 30.7977 16.0429C30.7834 16.0144 30.7405 16.0001 30.6977 16.0001C28.5548 16.3715 26.5118 17.0144 24.5975 17.9001C24.5832 17.9001 24.5689 17.9144 24.5546 17.9287C20.6688 23.7431 19.5974 29.4004 20.126 35.0006C20.126 35.0292 20.1402 35.0577 20.1688 35.072C22.7403 36.9578 25.2118 38.1007 27.6547 38.8578C27.6976 38.8721 27.7404 38.8578 27.7547 38.8293C28.3262 38.0435 28.8405 37.2149 29.2833 36.3435C29.3119 36.2863 29.2833 36.2292 29.2262 36.2149C28.4119 35.9006 27.6404 35.5292 26.8833 35.1006C26.8261 35.072 26.8261 34.9863 26.869 34.9434C27.0261 34.8292 27.1833 34.7006 27.3404 34.5863C27.369 34.5577 27.4119 34.5577 27.4404 34.572C32.3549 36.8149 37.655 36.8149 42.5123 34.572C42.5409 34.5577 42.5837 34.5577 42.6123 34.5863C42.7694 34.7149 42.9266 34.8292 43.0837 34.9577C43.1409 35.0006 43.1409 35.0863 43.0694 35.1149C42.3266 35.5577 41.5408 35.9149 40.7265 36.2292C40.6694 36.2435 40.6551 36.3149 40.6694 36.3578C41.1265 37.2292 41.6408 38.0578 42.198 38.8435C42.2408 38.8578 42.2837 38.8721 42.3266 38.8578C44.7838 38.1007 47.2553 36.9578 49.8268 35.072C49.8553 35.0577 49.8696 35.0292 49.8696 35.0006C50.4982 28.529 48.8267 22.9145 45.4409 17.9287C45.4266 17.9144 45.4124 17.9001 45.3838 17.9001ZM30.0262 31.5862C28.5548 31.5862 27.3261 30.229 27.3261 28.5576C27.3261 26.8861 28.5262 25.5289 30.0262 25.5289C31.5406 25.5289 32.7406 26.9004 32.7263 28.5576C32.7263 30.229 31.5263 31.5862 30.0262 31.5862ZM39.9836 31.5862C38.5122 31.5862 37.2836 30.229 37.2836 28.5576C37.2836 26.8861 38.4836 25.5289 39.9836 25.5289C41.498 25.5289 42.698 26.9004 42.6837 28.5576C42.6837 30.229 41.498 31.5862 39.9836 31.5862Z" fill="#11D9C5"/>
</g>
<defs>
<filter id="filter0_d_134_273" x="0" y="0" width="70" height="62.8638" filterUnits="userSpaceOnUse" color-interpolation-filters="sRGB">
<feFlood flood-opacity="0" result="BackgroundImageFix"/>
<feColorMatrix in="SourceAlpha" type="matrix" values="0 0 0 0 0 0 0 0 0 0 0 0 0 0 0 0 0 0 127 0" result="hardAlpha"/>
<feOffset dy="4"/>
<feGaussianBlur stdDeviation="10"/>
<feComposite in2="hardAlpha" operator="out"/>
<feColorMatrix type="matrix" values="0 0 0 0 0.0666667 0 0 0 0 0.85098 0 0 0 0 0.772549 0 0 0 0.3 0"/>
<feBlend mode="normal" in2="BackgroundImageFix" result="effect1_dropShadow_134_273"/>
<feBlend mode="normal" in="SourceGraphic" in2="effect1_dropShadow_134_273" result="shape"/>
</filter>
</defs>
</svg>
