<svg width="70" height="70" viewBox="0 0 70 70" fill="none" xmlns="http://www.w3.org/2000/svg">
<g filter="url(#filter0_d_134_272)">
<path d="M46.6667 16C47.5507 16 48.3986 16.3512 49.0237 16.9763C49.6488 17.6014 50 18.4493 50 19.3333V42.6667C50 43.5507 49.6488 44.3986 49.0237 45.0237C48.3986 45.6488 47.5507 46 46.6667 46H23.3333C22.4493 46 21.6014 45.6488 20.9763 45.0237C20.3512 44.3986 20 43.5507 20 42.6667V19.3333C20 18.4493 20.3512 17.6014 20.9763 16.9763C21.6014 16.3512 22.4493 16 23.3333 16H46.6667ZM45.8333 41.8333V33C45.8333 31.559 45.2609 30.177 44.2419 29.1581C43.223 28.1391 41.841 27.5667 40.4 27.5667C38.9833 27.5667 37.3333 28.4333 36.5333 29.7333V27.8833H31.8833V41.8333H36.5333V33.6167C36.5333 32.3333 37.5667 31.2833 38.85 31.2833C39.4688 31.2833 40.0623 31.5292 40.4999 31.9668C40.9375 32.4043 41.1833 32.9978 41.1833 33.6167V41.8333H45.8333ZM26.4667 25.2667C27.2093 25.2667 27.9215 24.9717 28.4466 24.4466C28.9717 23.9215 29.2667 23.2093 29.2667 22.4667C29.2667 20.9167 28.0167 19.65 26.4667 19.65C25.7196 19.65 25.0032 19.9468 24.475 20.475C23.9468 21.0032 23.65 21.7196 23.65 22.4667C23.65 24.0167 24.9167 25.2667 26.4667 25.2667ZM28.7833 41.8333V27.8833H24.1667V41.8333H28.7833Z" fill="#11D9C5"/>
</g>
<defs>
<filter id="filter0_d_134_272" x="0" y="0" width="70" height="70" filterUnits="userSpaceOnUse" color-interpolation-filters="sRGB">
<feFlood flood-opacity="0" result="BackgroundImageFix"/>
<feColorMatrix in="SourceAlpha" type="matrix" values="0 0 0 0 0 0 0 0 0 0 0 0 0 0 0 0 0 0 127 0" result="hardAlpha"/>
<feOffset dy="4"/>
<feGaussianBlur stdDeviation="10"/>
<feComposite in2="hardAlpha" operator="out"/>
<feColorMatrix type="matrix" values="0 0 0 0 0.0666667 0 0 0 0 0.85098 0 0 0 0 0.772549 0 0 0 0.3 0"/>
<feBlend mode="normal" in2="BackgroundImageFix" result="effect1_dropShadow_134_272"/>
<feBlend mode="normal" in="SourceGraphic" in2="effect1_dropShadow_134_272" result="shape"/>
</filter>
</defs>
</svg>
