<svg width="66" height="64" viewBox="0 0 66 64" fill="none" xmlns="http://www.w3.org/2000/svg">
<g filter="url(#filter0_d_9729_17888)">
<path d="M32.9997 6.0832C26.9861 6.0221 21.1942 8.35114 16.897 12.5585C12.5999 16.7658 10.149 22.5071 10.083 28.5207C10.1062 33.2731 11.635 37.896 14.4498 41.7252C17.2646 45.5544 21.2207 48.393 25.7497 49.8332C26.8955 50.0415 27.3122 49.354 27.3122 48.7499V44.9374C20.9372 46.2915 19.583 41.9374 19.583 41.9374C19.1586 40.5705 18.2564 39.402 17.0413 38.6457C14.958 37.2707 17.208 37.2915 17.208 37.2915C17.9281 37.3878 18.6171 37.6459 19.2232 38.0464C19.8294 38.4469 20.337 38.9794 20.708 39.604C21.3545 40.7251 22.4154 41.5476 23.6622 41.8943C24.909 42.2411 26.2422 42.0845 27.3747 41.4582C27.4911 40.3173 28.0078 39.2545 28.833 38.4582C23.7497 37.8957 18.4163 35.979 18.4163 27.3749C18.3709 25.1305 19.2002 22.9564 20.7288 21.3124C20.0326 19.3854 20.1149 17.263 20.958 15.3957C20.958 15.3957 22.8955 14.7915 27.208 17.6874C30.962 16.687 34.9124 16.687 38.6663 17.6874C43.0413 14.7915 44.9163 15.3957 44.9163 15.3957C45.7595 17.263 45.8417 19.3854 45.1455 21.3124C46.7097 22.9262 47.5839 25.0857 47.583 27.3332C47.583 35.9582 42.208 37.854 37.1663 38.4165C37.7184 38.9525 38.1448 39.6041 38.415 40.3246C38.6852 41.045 38.7923 41.8164 38.7288 42.5832V48.729C38.7288 49.4582 39.1455 50.0415 40.2913 49.8124C44.8075 48.3632 48.7502 45.524 51.5563 41.7002C54.3624 37.8764 55.8884 33.2636 55.9163 28.5207C55.8504 22.5071 53.3995 16.7658 49.1023 12.5585C44.8051 8.35114 39.0133 6.0221 32.9997 6.0832Z" fill="#11D9C5"/>
</g>
<defs>
<filter id="filter0_d_9729_17888" x="0.0830078" y="0.0820312" width="65.833" height="63.7891" filterUnits="userSpaceOnUse" color-interpolation-filters="sRGB">
<feFlood flood-opacity="0" result="BackgroundImageFix"/>
<feColorMatrix in="SourceAlpha" type="matrix" values="0 0 0 0 0 0 0 0 0 0 0 0 0 0 0 0 0 0 127 0" result="hardAlpha"/>
<feOffset dy="4"/>
<feGaussianBlur stdDeviation="5"/>
<feComposite in2="hardAlpha" operator="out"/>
<feColorMatrix type="matrix" values="0 0 0 0 0.0666667 0 0 0 0 0.85098 0 0 0 0 0.772549 0 0 0 0.3 0"/>
<feBlend mode="normal" in2="BackgroundImageFix" result="effect1_dropShadow_9729_17888"/>
<feBlend mode="normal" in="SourceGraphic" in2="effect1_dropShadow_9729_17888" result="shape"/>
</filter>
</defs>
</svg>
