<svg width="70" height="70" viewBox="0 0 70 70" fill="none" xmlns="http://www.w3.org/2000/svg">
<g filter="url(#filter0_d_9729_17886)">
<path d="M35 6C48.8075 6 60 17.1925 60 31C60 44.8075 48.8075 56 35 56C21.1925 56 10 44.8075 10 31C10 17.1925 21.1925 6 35 6ZM46.105 21C45.1525 21.0175 43.69 21.5175 36.6575 24.405C31.7212 26.4658 26.7986 28.5591 21.89 30.685C20.69 31.1575 20.065 31.6175 20.0075 32.0675C19.8975 32.9325 21.1575 33.2 22.7425 33.71C24.035 34.125 25.775 34.61 26.68 34.63C27.5 34.6475 28.415 34.3125 29.425 33.63C36.325 29.03 39.8825 26.7075 40.1075 26.6575C40.265 26.6225 40.4825 26.5775 40.6325 26.7075C40.78 26.8375 40.765 27.0825 40.7475 27.15C40.6225 27.6775 34.145 33.495 33.7725 33.8775L33.5925 34.0575C32.2175 35.415 30.83 36.3025 33.225 37.86C35.39 39.2675 36.65 40.165 38.875 41.61C40.3 42.53 41.4175 43.6225 42.8875 43.49C43.565 43.4275 44.2625 42.8 44.62 40.925C45.4575 36.5 47.1075 26.905 47.4875 22.95C47.5105 22.6219 47.4962 22.2923 47.445 21.9675C47.4142 21.7052 47.2856 21.4642 47.085 21.2925C46.7825 21.0475 46.3125 20.9975 46.105 21Z" fill="#11D9C5"/>
</g>
<defs>
<filter id="filter0_d_9729_17886" x="0" y="0" width="70" height="70" filterUnits="userSpaceOnUse" color-interpolation-filters="sRGB">
<feFlood flood-opacity="0" result="BackgroundImageFix"/>
<feColorMatrix in="SourceAlpha" type="matrix" values="0 0 0 0 0 0 0 0 0 0 0 0 0 0 0 0 0 0 127 0" result="hardAlpha"/>
<feOffset dy="4"/>
<feGaussianBlur stdDeviation="5"/>
<feComposite in2="hardAlpha" operator="out"/>
<feColorMatrix type="matrix" values="0 0 0 0 0.0666667 0 0 0 0 0.85098 0 0 0 0 0.772549 0 0 0 0.3 0"/>
<feBlend mode="normal" in2="BackgroundImageFix" result="effect1_dropShadow_9729_17886"/>
<feBlend mode="normal" in="SourceGraphic" in2="effect1_dropShadow_9729_17886" result="shape"/>
</filter>
</defs>
</svg>
